<svg width="519" height="161" viewBox="0 0 519 161" fill="none" xmlns="http://www.w3.org/2000/svg">
<path d="M155.993 111.659C148.235 111.659 141.436 110.134 135.596 107.083C129.843 103.945 125.354 99.6737 122.129 94.2694C118.991 88.865 117.422 82.7197 117.422 75.8335C117.422 68.8602 118.947 62.7149 121.998 57.3977C125.136 51.9934 129.407 47.7658 134.812 44.7149C140.303 41.6641 146.536 40.1387 153.509 40.1387C160.308 40.1387 166.366 41.6205 171.683 44.5842C177.001 47.5479 181.185 51.7319 184.235 57.1362C187.286 62.5406 188.812 68.9038 188.812 76.2258C188.812 76.9231 188.768 77.7076 188.681 78.5793C188.681 79.451 188.637 80.2791 188.55 81.0636H130.366V70.2113H179.921L173.514 73.6108C173.601 69.6011 172.773 66.0708 171.03 63.02C169.286 59.9692 166.889 57.5721 163.838 55.8287C160.875 54.0854 157.432 53.2137 153.509 53.2137C149.499 53.2137 145.969 54.0854 142.918 55.8287C139.955 57.5721 137.601 60.0127 135.858 63.1508C134.202 66.2016 133.373 69.819 133.373 74.003V76.6181C133.373 80.8021 134.332 84.5067 136.25 87.7318C138.168 90.957 140.87 93.4413 144.357 95.1846C147.843 96.928 151.853 97.7996 156.386 97.7996C160.308 97.7996 163.838 97.1895 166.976 95.9691C170.114 94.7488 172.904 92.8311 175.344 90.2161L184.105 100.284C180.967 103.945 177.001 106.778 172.206 108.783C167.499 110.7 162.095 111.659 155.993 111.659Z" fill="#3A80FF"/>
<path d="M72.6514 111.661C66.9856 111.661 61.7991 110.354 57.0921 107.739C52.4722 105.124 48.7676 101.201 45.9783 95.9711C43.2761 90.6539 41.925 83.942 41.925 75.8355C41.925 67.6418 43.2325 60.93 45.8475 55.6999C48.5497 50.4699 52.2107 46.591 56.8306 44.0631C61.4504 41.4481 66.724 40.1406 72.6514 40.1406C79.5376 40.1406 85.5957 41.6225 90.8258 44.5861C96.1429 47.5498 100.327 51.6902 103.378 57.0074C106.516 62.3246 108.085 68.6006 108.085 75.8355C108.085 83.0704 106.516 89.39 103.378 94.7943C100.327 100.112 96.1429 104.252 90.8258 107.216C85.5957 110.179 79.5376 111.661 72.6514 111.661ZM33.9492 139.861L33.9492 40.9251H49.5085V57.3997L48.9855 75.9663L50.293 94.5328V139.859L33.9492 139.861ZM70.8209 97.6708C74.7434 97.6708 78.2301 96.7992 81.281 95.0558C84.419 93.3125 86.9032 90.7846 88.7337 87.4723C90.5643 84.16 91.4795 80.281 91.4795 75.8355C91.4795 71.3028 90.5643 67.4239 88.7337 64.1987C86.9032 60.8864 84.419 58.3585 81.281 56.6152C78.2301 54.8718 74.7434 54.0002 70.8209 54.0002C66.8984 54.0002 63.3681 54.8718 60.2301 56.6152C57.0921 58.3585 54.6078 60.8864 52.7773 64.1987C50.9468 67.4239 50.0315 71.3028 50.0315 75.8355C50.0315 80.281 50.9468 84.16 52.7773 87.4723C54.6078 90.7846 57.0921 93.3125 60.2301 95.0558C63.3681 96.7992 66.8984 97.6708 70.8209 97.6708Z" fill="#3A80FF"/>
<path d="M289.405 111.665C283.739 111.665 278.553 110.358 273.846 107.743C269.226 105.128 265.522 101.205 262.732 95.975C260.03 90.6578 258.679 83.9459 258.679 75.8394C258.679 67.6457 259.986 60.9339 262.601 55.7038C265.304 50.4738 268.965 46.5949 273.584 44.067C278.204 41.452 283.478 40.1445 289.405 40.1445C296.292 40.1445 302.35 41.6264 307.58 44.59C312.897 47.5537 317.081 51.6942 320.132 57.0113C323.27 62.3285 324.839 68.6046 324.839 75.8394C324.839 83.0743 323.27 89.3939 320.132 94.7982C317.081 100.115 312.897 104.256 307.58 107.22C302.35 110.183 296.292 111.665 289.405 111.665ZM250.703 139.863V40.929H266.262V57.4036L265.739 75.9702L267.047 94.5367C267.047 112.238 267.047 122.162 267.047 139.863H250.703ZM287.575 97.6747C291.497 97.6747 294.984 96.8031 298.035 95.0597C301.173 93.3164 303.657 90.7886 305.488 87.4762C307.318 84.1639 308.233 80.2849 308.233 75.8394C308.233 71.3067 307.318 67.4278 305.488 64.2026C303.657 60.8903 301.173 58.3624 298.035 56.6191C294.984 54.8758 291.497 54.0041 287.575 54.0041C283.652 54.0041 280.122 54.8758 276.984 56.6191C273.846 58.3624 271.362 60.8903 269.531 64.2026C267.701 67.4278 266.785 71.3067 266.785 75.8394C266.785 80.2849 267.701 84.1639 269.531 87.4762C271.362 90.7886 273.846 93.3164 276.984 95.0597C280.122 96.8031 283.652 97.6747 287.575 97.6747Z" fill="#00369E"/>
<path fill-rule="evenodd" clip-rule="evenodd" d="M419.367 139.861H437.223L480.687 41.0664H462.868L419.367 139.861Z" fill="#00369E"/>
<path d="M420.302 41.1895H403.258L427.683 97.2975C427.864 97.7138 428.453 97.716 428.638 97.3011L436.506 79.5906C436.545 79.5025 436.546 79.4021 436.508 79.3133L420.302 41.1895Z" fill="#00369E"/>
<path d="M199.383 110.744V40.9232H214.942V60.1435L213.112 54.5212C215.204 49.8142 218.472 46.2404 222.918 43.7997C227.451 41.359 233.073 40.1387 239.785 40.1387V55.698C239.087 55.5236 238.434 55.4365 237.823 55.4365C237.213 55.3493 236.603 55.3057 235.993 55.3057C229.804 55.3057 224.879 57.1362 221.218 60.7972C217.557 64.3711 215.727 69.7319 215.727 76.8796V110.744H199.383Z" fill="#3A80FF"/>
<path d="M381.993 110.744V96.6229L381.078 93.6156V68.9038C381.078 64.1096 379.64 60.405 376.763 57.79C373.887 55.0878 369.528 53.7367 363.688 53.7367C359.766 53.7367 355.887 54.3469 352.051 55.5672C348.303 56.7876 345.122 58.4873 342.507 60.6665L336.1 48.7682C339.848 45.8917 344.294 43.7561 349.436 42.3614C354.666 40.8796 360.071 40.1387 365.649 40.1387C375.761 40.1387 383.562 42.5793 389.054 47.4607C394.633 52.2549 397.422 59.7077 397.422 69.819V110.744H381.993ZM360.027 111.659C354.797 111.659 350.221 110.788 346.298 109.044C342.376 107.214 339.325 104.729 337.146 101.591C335.054 98.3662 334.008 94.7488 334.008 90.7391C334.008 86.8166 334.923 83.2863 336.754 80.1483C338.671 77.0103 341.766 74.5261 346.037 72.6955C350.308 70.865 355.974 69.9498 363.034 69.9498H383.301V80.8021H364.211C358.633 80.8021 354.884 81.7173 352.967 83.5478C351.049 85.2912 350.09 87.4703 350.09 90.0853C350.09 93.049 351.267 95.4025 353.62 97.1459C355.974 98.8892 359.243 99.7609 363.427 99.7609C367.436 99.7609 371.01 98.8456 374.148 97.0151C377.373 95.1846 379.683 92.4824 381.078 88.9086L383.824 98.7149C382.255 102.812 379.422 105.993 375.325 108.26C371.315 110.526 366.216 111.659 360.027 111.659Z" fill="#00369E"/>
</svg>
